<?xml version="1.0" standalone="no"?>
<!DOCTYPE svg PUBLIC "-//W3C//DTD SVG 20010904//EN"
 "http://www.w3.org/TR/2001/REC-SVG-20010904/DTD/svg10.dtd">
<svg version="1.0" xmlns="http://www.w3.org/2000/svg"
 width="400.000000pt" height="400.000000pt" viewBox="0 0 400.000000 400.000000"
 preserveAspectRatio="xMidYMid meet">
<metadata>
Created by potrace 1.15, written by Peter Selinger 2001-2017
</metadata>
<g transform="translate(0.000000,400.000000) scale(0.100000,-0.100000)"
fill="#000000" stroke="none">
<path d="M859 3288 c-29 -52 -8 -207 31 -228 10 -6 91 -10 179 -10 l161 0 0
-1078 c0 -1018 -1 -1080 -18 -1095 -24 -22 -94 -36 -178 -37 -55 0 -77 -4 -96
-19 -45 -35 -64 -163 -32 -209 l15 -22 544 0 543 0 26 31 c23 27 26 39 26 105
0 121 15 114 -235 114 l-215 0 0 439 0 439 141 7 c77 4 141 6 143 4 2 -2 139
-225 305 -495 324 -529 347 -560 459 -612 55 -26 64 -27 259 -30 l202 -4 26
26 c25 25 32 67 26 155 -4 60 -13 67 -93 74 -40 3 -96 13 -125 22 -96 29 -128
70 -409 525 -140 228 -256 419 -257 423 -1 4 23 19 54 32 232 99 386 275 439
499 26 109 28 291 4 397 -63 284 -281 470 -644 550 -38 8 -241 13 -662 16
l-607 4 -12 -23z m999 -268 c388 -42 522 -170 523 -500 1 -352 -190 -498 -666
-512 l-100 -3 -3 513 -2 512 75 0 c42 0 119 -5 173 -10z"/>
</g>
</svg>
